<svg width="586" height="118" xmlns="http://www.w3.org/2000/svg" xmlns:xlink="http://www.w3.org/1999/xlink" xml:space="preserve" overflow="hidden"><g transform="translate(-214 -204)"><path d="M484.5 206.5 504.584 206.5 504.584 269.949 510.652 263.012 532.253 239.309 556.382 239.309 526.907 271.901 560.5 317.5 535.865 317.5 513.686 285.198 504.584 293.652 504.584 317.5 484.5 317.5 484.5 206.5Z" stroke="#262626" stroke-width="4.58333" stroke-linejoin="round" stroke-miterlimit="10" fill="#262626" fill-rule="evenodd"/><path d="M570.5 206.5 590.584 206.5 590.584 269.949 596.652 263.012 618.253 239.309 642.382 239.309 612.907 271.901 646.5 317.5 621.865 317.5 599.686 285.198 590.584 293.652 590.584 317.5 570.5 317.5 570.5 206.5Z" stroke="#262626" stroke-width="4.58333" stroke-linejoin="round" stroke-miterlimit="10" fill="#262626" fill-rule="evenodd"/><path d="M432.463 208.5C436.151 208.5 439.079 209.529 441.248 211.585 443.416 213.641 444.5 216.279 444.5 219.5 444.5 222.721 443.416 225.359 441.248 227.416 439.079 229.472 436.151 230.5 432.463 230.5 430.668 230.5 429.036 230.228 427.565 229.683 426.095 229.137 424.836 228.37 423.789 227.378 422.743 226.437 421.933 225.285 421.36 223.923 420.787 222.56 420.5 221.086 420.5 219.5 420.5 217.915 420.787 216.441 421.36 215.078 421.933 213.715 422.743 212.538 423.789 211.548 424.836 210.606 426.095 209.863 427.565 209.318 429.036 208.773 430.668 208.5 432.463 208.5Z" stroke="#262626" stroke-width="4.58333" stroke-linejoin="round" stroke-miterlimit="10" fill="#262626" fill-rule="evenodd"/><path d="M696.964 208.5C700.499 208.5 703.305 209.529 705.383 211.585 707.461 213.641 708.5 216.279 708.5 219.5 708.5 222.721 707.461 225.359 705.383 227.416 703.305 229.472 700.499 230.5 696.964 230.5 695.244 230.5 693.68 230.228 692.271 229.683 690.862 229.137 689.656 228.37 688.652 227.378 687.65 226.437 686.873 225.285 686.324 223.923 685.775 222.56 685.5 221.086 685.5 219.5 685.5 217.915 685.775 216.441 686.324 215.078 686.873 213.715 687.65 212.538 688.652 211.548 689.656 210.606 690.862 209.863 692.271 209.318 693.68 208.773 695.244 208.5 696.964 208.5Z" stroke="#262626" stroke-width="4.58333" stroke-linejoin="round" stroke-miterlimit="10" fill="#262626" fill-rule="evenodd"/><path d="M216.5 212.5 287.283 212.5 287.283 229.014 236.91 229.014 236.91 255.481 280.19 255.481 280.19 271.49 236.91 271.49 236.91 301.13 287.5 301.13 287.5 317.5 216.5 317.5 216.5 212.5Z" stroke="#262626" stroke-width="4.58333" stroke-linejoin="round" stroke-miterlimit="10" fill="none" fill-rule="evenodd"/><path d="M348.543 238.5C352.505 238.5 356.128 239.074 359.413 240.221 362.698 241.368 365.548 243.184 367.964 245.669 370.331 248.202 372.178 251.44 373.507 255.383 374.835 259.326 375.5 264.117 375.5 269.756L375.5 317.5 355.355 317.5 355.355 270.043C355.355 266.984 355.005 264.463 354.304 262.48 353.604 260.496 352.601 258.931 351.297 257.784 349.993 256.637 348.423 255.837 346.587 255.383 344.751 254.929 342.674 254.702 340.355 254.702 338.423 254.702 336.647 254.917 335.029 255.347 333.411 255.777 331.974 256.422 330.717 257.282 329.703 257.904 328.785 258.644 327.964 259.505 327.143 260.365 326.394 261.321 325.717 262.372L325.717 317.5 305.5 317.5 305.5 239.934 323.761 239.934 324.993 250.687C326.007 249.254 327.118 247.939 328.326 246.744 329.534 245.55 330.814 244.474 332.167 243.519 334.485 241.894 337.022 240.651 339.775 239.791 342.529 238.93 345.452 238.5 348.543 238.5Z" stroke="#262626" stroke-width="4.58333" stroke-linejoin="round" stroke-miterlimit="10" fill="#262626" fill-rule="evenodd"/><path d="M400.5 239.5 442.571 239.5 442.571 301.208 463.5 301.208 463.5 317.5 400.5 317.5 400.5 301.208 422.5 301.208 422.5 255.864 400.5 255.864 400.5 239.5Z" stroke="#262626" stroke-width="4.58333" stroke-linejoin="round" stroke-miterlimit="10" fill="#262626" fill-rule="evenodd"/><path d="M664.5 239.5 707.239 239.5 707.239 301.208 728.5 301.208 728.5 317.5 664.5 317.5 664.5 301.208 686.849 301.208 686.849 255.864 664.5 255.864 664.5 239.5Z" stroke="#262626" stroke-width="4.58333" stroke-linejoin="round" stroke-miterlimit="10" fill="#262626" fill-rule="evenodd"/><path d="M783.5 292.5C787.853 292.5 791.274 293.807 793.764 296.421 796.255 299.034 797.5 302.264 797.5 306.111 797.5 309.957 796.231 313.15 793.692 315.69 791.153 318.23 787.756 319.5 783.5 319.5 779.196 319.5 775.787 318.217 773.272 315.653 770.758 313.089 769.5 309.908 769.5 306.111 769.5 302.314 770.733 299.096 773.2 296.458 775.666 293.819 779.099 292.5 783.5 292.5Z" stroke="#262626" stroke-width="4.58333" stroke-linejoin="round" stroke-miterlimit="10" fill="#262626" fill-rule="evenodd"/></g></svg>